<mxfile host="65bd71144e">
    <diagram id="2IpZyWTVwcBk6ORTr7U4" name="Page-1">
        <mxGraphModel dx="1250" dy="286" grid="1" gridSize="10" guides="1" tooltips="1" connect="1" arrows="1" fold="1" page="1" pageScale="1" pageWidth="827" pageHeight="1169" math="0" shadow="0">
            <root>
                <mxCell id="0"/>
                <mxCell id="1" parent="0"/>
                <mxCell id="2" value="" style="ellipse;whiteSpace=wrap;html=1;aspect=fixed;" vertex="1" parent="1">
                    <mxGeometry x="360" y="200" width="80" height="80" as="geometry"/>
                </mxCell>
                <mxCell id="6" value="&lt;span style=&quot;font-size: 12px&quot;&gt;window load&lt;/span&gt;" style="edgeStyle=orthogonalEdgeStyle;rounded=0;orthogonalLoop=1;jettySize=auto;html=1;exitX=0.5;exitY=1;exitDx=0;exitDy=0;entryX=0.5;entryY=0;entryDx=0;entryDy=0;" edge="1" parent="1" target="7">
                    <mxGeometry relative="1" as="geometry">
                        <mxPoint x="400" y="350" as="targetPoint"/>
                        <mxPoint x="399.9" y="280" as="sourcePoint"/>
                        <Array as="points"/>
                    </mxGeometry>
                </mxCell>
                <mxCell id="7" value="visKategorier" style="swimlane;fontStyle=4;align=center;verticalAlign=top;childLayout=stackLayout;horizontal=1;startSize=37;horizontalStack=0;resizeParent=1;resizeParentMax=0;resizeLast=0;collapsible=0;marginBottom=0;html=1;rounded=1;absoluteArcSize=1;arcSize=25;" vertex="1" parent="1">
                    <mxGeometry x="330" y="360" width="140" height="77" as="geometry"/>
                </mxCell>
                <mxCell id="8" value="Skjul andre skærme" style="fillColor=none;strokeColor=none;align=left;verticalAlign=middle;spacingLeft=5;" vertex="1" parent="7">
                    <mxGeometry y="37" width="140" height="20" as="geometry"/>
                </mxCell>
                <mxCell id="9" value="Vis start skærm" style="fillColor=none;strokeColor=none;align=left;verticalAlign=middle;spacingLeft=5;" vertex="1" parent="7">
                    <mxGeometry y="57" width="140" height="20" as="geometry"/>
                </mxCell>
                <mxCell id="10" value="klikStrand" style="swimlane;fontStyle=4;align=center;verticalAlign=top;childLayout=stackLayout;horizontal=1;startSize=37;horizontalStack=0;resizeParent=1;resizeParentMax=0;resizeLast=0;collapsible=0;marginBottom=0;html=1;rounded=1;absoluteArcSize=1;arcSize=25;" vertex="1" parent="1">
                    <mxGeometry x="140" y="480" width="140" height="77" as="geometry"/>
                </mxCell>
                <mxCell id="11" value="Skjul andre skærme" style="fillColor=none;strokeColor=none;align=left;verticalAlign=middle;spacingLeft=5;" vertex="1" parent="10">
                    <mxGeometry y="37" width="140" height="20" as="geometry"/>
                </mxCell>
                <mxCell id="12" value="Vis strand kort" style="fillColor=none;strokeColor=none;align=left;verticalAlign=middle;spacingLeft=5;" vertex="1" parent="10">
                    <mxGeometry y="57" width="140" height="20" as="geometry"/>
                </mxCell>
                <mxCell id="13" value="klikSkov" style="swimlane;fontStyle=4;align=center;verticalAlign=top;childLayout=stackLayout;horizontal=1;startSize=37;horizontalStack=0;resizeParent=1;resizeParentMax=0;resizeLast=0;collapsible=0;marginBottom=0;html=1;rounded=1;absoluteArcSize=1;arcSize=25;" vertex="1" parent="1">
                    <mxGeometry x="330" y="480" width="140" height="77" as="geometry"/>
                </mxCell>
                <mxCell id="14" value="Skjul andre skærme" style="fillColor=none;strokeColor=none;align=left;verticalAlign=middle;spacingLeft=5;" vertex="1" parent="13">
                    <mxGeometry y="37" width="140" height="20" as="geometry"/>
                </mxCell>
                <mxCell id="15" value="Vis skov kort" style="fillColor=none;strokeColor=none;align=left;verticalAlign=middle;spacingLeft=5;" vertex="1" parent="13">
                    <mxGeometry y="57" width="140" height="20" as="geometry"/>
                </mxCell>
                <mxCell id="16" value="klikBlomstereng" style="swimlane;fontStyle=4;align=center;verticalAlign=top;childLayout=stackLayout;horizontal=1;startSize=37;horizontalStack=0;resizeParent=1;resizeParentMax=0;resizeLast=0;collapsible=0;marginBottom=0;html=1;rounded=1;absoluteArcSize=1;arcSize=25;" vertex="1" parent="1">
                    <mxGeometry x="520" y="480" width="140" height="77" as="geometry"/>
                </mxCell>
                <mxCell id="17" value="Skjul andre skærme" style="fillColor=none;strokeColor=none;align=left;verticalAlign=middle;spacingLeft=5;" vertex="1" parent="16">
                    <mxGeometry y="37" width="140" height="20" as="geometry"/>
                </mxCell>
                <mxCell id="18" value="Vis blomstereng kort" style="fillColor=none;strokeColor=none;align=left;verticalAlign=middle;spacingLeft=5;" vertex="1" parent="16">
                    <mxGeometry y="57" width="140" height="20" as="geometry"/>
                </mxCell>
                <mxCell id="19" value="Klik på strand" style="edgeStyle=orthogonalEdgeStyle;rounded=0;orthogonalLoop=1;jettySize=auto;html=1;exitX=0;exitY=0;exitDx=0;exitDy=0;entryX=0.5;entryY=0;entryDx=0;entryDy=0;" edge="1" parent="1" target="10">
                    <mxGeometry x="-0.4177" relative="1" as="geometry">
                        <mxPoint as="offset"/>
                        <mxPoint x="327.5" y="400.0000000000001" as="sourcePoint"/>
                        <mxPoint x="92.5" y="513" as="targetPoint"/>
                    </mxGeometry>
                </mxCell>
                <mxCell id="20" value="Klik på blomstereng" style="edgeStyle=orthogonalEdgeStyle;rounded=0;orthogonalLoop=1;jettySize=auto;html=1;exitX=0;exitY=0;exitDx=0;exitDy=0;entryX=0.5;entryY=0;entryDx=0;entryDy=0;" edge="1" parent="1" target="16">
                    <mxGeometry x="-0.4001" relative="1" as="geometry">
                        <mxPoint as="offset"/>
                        <mxPoint x="469.9999999999999" y="400" as="sourcePoint"/>
                        <mxPoint x="587.5000000000001" y="320.0000000000001" as="targetPoint"/>
                    </mxGeometry>
                </mxCell>
                <mxCell id="21" value="Klik på skov" style="edgeStyle=orthogonalEdgeStyle;rounded=0;orthogonalLoop=1;jettySize=auto;html=1;entryX=0.5;entryY=0;entryDx=0;entryDy=0;exitX=0.5;exitY=1;exitDx=0;exitDy=0;" edge="1" parent="1" source="9" target="13">
                    <mxGeometry x="0.0698" relative="1" as="geometry">
                        <mxPoint as="offset"/>
                        <mxPoint x="400" y="440" as="sourcePoint"/>
                        <mxPoint x="400" y="478" as="targetPoint"/>
                        <Array as="points"/>
                    </mxGeometry>
                </mxCell>
                <mxCell id="22" value="visStrandPizza" style="swimlane;fontStyle=4;align=center;verticalAlign=top;childLayout=stackLayout;horizontal=1;startSize=37;horizontalStack=0;resizeParent=1;resizeParentMax=0;resizeLast=0;collapsible=0;marginBottom=0;html=1;rounded=1;absoluteArcSize=1;arcSize=25;" vertex="1" parent="1">
                    <mxGeometry x="10" y="600" width="160" height="113" as="geometry"/>
                </mxCell>
                <mxCell id="23" value="Skjul andre skærme&#10;Vis opskrift skærm" style="fillColor=none;strokeColor=none;align=left;verticalAlign=middle;spacingLeft=5;" vertex="1" parent="22">
                    <mxGeometry y="37" width="160" height="33" as="geometry"/>
                </mxCell>
                <mxCell id="24" value="Vis råvarer for strand pizza&#10;Vis svg for strand pizza&#10;Vis opskrift for strand pizza" style="fillColor=none;strokeColor=none;align=left;verticalAlign=middle;spacingLeft=5;" vertex="1" parent="22">
                    <mxGeometry y="70" width="160" height="43" as="geometry"/>
                </mxCell>
                <mxCell id="28" value="visStrandPizza" style="swimlane;fontStyle=4;align=center;verticalAlign=top;childLayout=stackLayout;horizontal=1;startSize=37;horizontalStack=0;resizeParent=1;resizeParentMax=0;resizeLast=0;collapsible=0;marginBottom=0;html=1;rounded=1;absoluteArcSize=1;arcSize=25;" vertex="1" parent="1">
                    <mxGeometry x="410" y="600" width="160" height="100" as="geometry"/>
                </mxCell>
                <mxCell id="29" value="Skjul andre skærme" style="fillColor=none;strokeColor=none;align=left;verticalAlign=middle;spacingLeft=5;" vertex="1" parent="28">
                    <mxGeometry y="37" width="160" height="20" as="geometry"/>
                </mxCell>
                <mxCell id="30" value="Vis råvarer for strand pizza" style="fillColor=none;strokeColor=none;align=left;verticalAlign=middle;spacingLeft=5;" vertex="1" parent="28">
                    <mxGeometry y="57" width="160" height="43" as="geometry"/>
                </mxCell>
                <mxCell id="31" value="visStrandPasta" style="swimlane;fontStyle=4;align=center;verticalAlign=top;childLayout=stackLayout;horizontal=1;startSize=37;horizontalStack=0;resizeParent=1;resizeParentMax=0;resizeLast=0;collapsible=0;marginBottom=0;html=1;rounded=1;absoluteArcSize=1;arcSize=25;" vertex="1" parent="1">
                    <mxGeometry x="210" y="600" width="180" height="100" as="geometry"/>
                </mxCell>
                <mxCell id="32" value="Skjul andre skærme" style="fillColor=none;strokeColor=none;align=left;verticalAlign=middle;spacingLeft=5;" vertex="1" parent="31">
                    <mxGeometry y="37" width="180" height="20" as="geometry"/>
                </mxCell>
                <mxCell id="33" value="Vis råvarer for strand pasta ret" style="fillColor=none;strokeColor=none;align=left;verticalAlign=middle;spacingLeft=5;" vertex="1" parent="31">
                    <mxGeometry y="57" width="180" height="43" as="geometry"/>
                </mxCell>
                <mxCell id="34" value="visStrandPizza" style="swimlane;fontStyle=4;align=center;verticalAlign=top;childLayout=stackLayout;horizontal=1;startSize=37;horizontalStack=0;resizeParent=1;resizeParentMax=0;resizeLast=0;collapsible=0;marginBottom=0;html=1;rounded=1;absoluteArcSize=1;arcSize=25;" vertex="1" parent="1">
                    <mxGeometry x="810" y="600" width="160" height="100" as="geometry"/>
                </mxCell>
                <mxCell id="35" value="Skjul andre skærme" style="fillColor=none;strokeColor=none;align=left;verticalAlign=middle;spacingLeft=5;" vertex="1" parent="34">
                    <mxGeometry y="37" width="160" height="20" as="geometry"/>
                </mxCell>
                <mxCell id="36" value="Vis råvarer for strand pizza" style="fillColor=none;strokeColor=none;align=left;verticalAlign=middle;spacingLeft=5;" vertex="1" parent="34">
                    <mxGeometry y="57" width="160" height="43" as="geometry"/>
                </mxCell>
                <mxCell id="37" value="visStrandPasta" style="swimlane;fontStyle=4;align=center;verticalAlign=top;childLayout=stackLayout;horizontal=1;startSize=37;horizontalStack=0;resizeParent=1;resizeParentMax=0;resizeLast=0;collapsible=0;marginBottom=0;html=1;rounded=1;absoluteArcSize=1;arcSize=25;" vertex="1" parent="1">
                    <mxGeometry x="610" y="600" width="180" height="100" as="geometry"/>
                </mxCell>
                <mxCell id="38" value="Skjul andre skærme" style="fillColor=none;strokeColor=none;align=left;verticalAlign=middle;spacingLeft=5;" vertex="1" parent="37">
                    <mxGeometry y="37" width="180" height="20" as="geometry"/>
                </mxCell>
                <mxCell id="39" value="Vis råvarer for strand pasta ret" style="fillColor=none;strokeColor=none;align=left;verticalAlign=middle;spacingLeft=5;" vertex="1" parent="37">
                    <mxGeometry y="57" width="180" height="43" as="geometry"/>
                </mxCell>
                <mxCell id="40" value="Klik på pizza" style="edgeStyle=orthogonalEdgeStyle;rounded=0;orthogonalLoop=1;jettySize=auto;html=1;exitX=0;exitY=0;exitDx=0;exitDy=0;entryX=0.5;entryY=0;entryDx=0;entryDy=0;" edge="1" parent="1" target="22">
                    <mxGeometry x="0.3845" relative="1" as="geometry">
                        <mxPoint as="offset"/>
                        <mxPoint x="140" y="520" as="sourcePoint"/>
                        <mxPoint x="22.5" y="600" as="targetPoint"/>
                        <Array as="points">
                            <mxPoint x="90" y="520"/>
                        </Array>
                    </mxGeometry>
                </mxCell>
                <mxCell id="41" value="Klik på pasta ret" style="edgeStyle=orthogonalEdgeStyle;rounded=0;orthogonalLoop=1;jettySize=auto;html=1;entryX=0.5;entryY=0;entryDx=0;entryDy=0;exitX=0;exitY=0;exitDx=0;exitDy=0;" edge="1" parent="1" source="11">
                    <mxGeometry x="0.7523" relative="1" as="geometry">
                        <mxPoint as="offset"/>
                        <mxPoint x="-10" y="510" as="sourcePoint"/>
                        <mxPoint x="-100" y="600" as="targetPoint"/>
                        <Array as="points">
                            <mxPoint x="-100" y="517"/>
                        </Array>
                    </mxGeometry>
                </mxCell>
                <mxCell id="42" value="visStrandPasta" style="swimlane;fontStyle=4;align=center;verticalAlign=top;childLayout=stackLayout;horizontal=1;startSize=37;horizontalStack=0;resizeParent=1;resizeParentMax=0;resizeLast=0;collapsible=0;marginBottom=0;html=1;rounded=1;absoluteArcSize=1;arcSize=25;" vertex="1" parent="1">
                    <mxGeometry x="-180" y="600" width="160" height="113" as="geometry"/>
                </mxCell>
                <mxCell id="43" value="Skjul andre skærme&#10;Vis opskrift skærm" style="fillColor=none;strokeColor=none;align=left;verticalAlign=middle;spacingLeft=5;" vertex="1" parent="42">
                    <mxGeometry y="37" width="160" height="33" as="geometry"/>
                </mxCell>
                <mxCell id="44" value="Vis råvarer for strand pasta&#10;Vis svg for strand pasta&#10;Vis opskrift for strand pasta" style="fillColor=none;strokeColor=none;align=left;verticalAlign=middle;spacingLeft=5;" vertex="1" parent="42">
                    <mxGeometry y="70" width="160" height="43" as="geometry"/>
                </mxCell>
            </root>
        </mxGraphModel>
    </diagram>
</mxfile>